<?xml version="1.0" standalone="no"?>
<!DOCTYPE svg PUBLIC "-//W3C//DTD SVG 20010904//EN"
 "http://www.w3.org/TR/2001/REC-SVG-20010904/DTD/svg10.dtd">
<svg version="1.0" xmlns="http://www.w3.org/2000/svg"
 width="720.000000pt" height="720.000000pt" viewBox="0 0 720.000000 720.000000"
 preserveAspectRatio="xMidYMid meet">

<g transform="translate(0.000000,720.000000) scale(0.100000,-0.100000)"
fill="#000000" stroke="none">
<path d="M3420 6073 c-95 -9 -316 -46 -401 -68 -239 -60 -449 -146 -640 -261
-31 -19 -61 -34 -67 -34 -6 0 -12 -4 -14 -8 -1 -4 -21 -19 -43 -32 -22 -13
-44 -28 -50 -32 -5 -4 -44 -34 -85 -65 -99 -76 -187 -154 -294 -259 -30 -29
-128 -143 -145 -168 -8 -12 -17 -23 -20 -26 -12 -10 -71 -89 -71 -94 0 -3 -19
-33 -42 -66 -59 -84 -74 -108 -99 -160 -12 -25 -26 -48 -31 -51 -5 -3 -10 -12
-12 -20 -1 -8 -13 -39 -28 -69 -75 -159 -79 -172 -153 -400 -19 -59 -62 -278
-70 -360 -4 -36 -9 -74 -11 -85 -9 -44 -4 -386 6 -480 24 -213 95 -499 161
-642 10 -24 19 -45 19 -48 0 -7 57 -134 72 -160 7 -11 27 -49 45 -84 19 -35
43 -77 53 -92 11 -15 20 -30 20 -33 0 -4 8 -16 18 -27 11 -10 25 -32 33 -47 8
-14 21 -36 30 -47 10 -11 49 -60 88 -110 117 -147 296 -322 430 -420 36 -26
74 -56 85 -66 11 -11 26 -19 33 -19 7 0 13 -4 13 -10 0 -5 4 -10 9 -10 5 0 51
-25 102 -56 264 -156 553 -262 859 -314 181 -31 480 -38 670 -16 146 17 349
59 450 94 30 11 57 20 60 20 11 2 49 16 145 54 318 128 601 319 846 573 58 61
114 121 125 134 10 13 33 40 50 60 26 31 59 79 193 281 16 24 106 206 148 300
68 151 147 441 168 620 31 261 24 554 -20 775 -8 39 -16 81 -19 95 -12 66 -84
310 -96 325 -4 6 -13 28 -20 50 -16 51 -135 296 -158 327 -10 12 -31 46 -47
73 -15 28 -31 52 -34 55 -10 8 -81 110 -81 116 0 3 -6 11 -12 18 -7 7 -24 27
-38 45 -14 18 -37 45 -52 59 -16 14 -28 29 -28 33 0 8 -124 135 -201 204 -85
78 -263 215 -278 215 -5 0 -11 4 -13 9 -3 8 -73 49 -221 130 -60 33 -226 108
-257 117 -8 2 -53 17 -100 34 -158 55 -363 99 -555 119 -85 8 -348 11 -425 4z
m524 -317 c692 -110 1277 -528 1604 -1146 321 -606 333 -1350 31 -1962 -73
-150 -196 -349 -174 -283 18 53 86 330 100 405 83 445 48 899 -90 1186 -134
276 -389 489 -718 599 -547 182 -1226 85 -1654 -236 -148 -112 -246 -238 -344
-444 l-50 -103 -136 -77 c-74 -42 -136 -75 -138 -73 -1 2 -20 57 -43 123 -61
180 -105 284 -196 460 -95 184 -164 299 -277 456 l-80 112 45 67 c103 156 305
367 466 490 328 249 693 394 1105 440 113 12 432 4 549 -14z m-2208 -1497
c130 -213 223 -415 298 -645 69 -214 71 -189 -25 -281 -106 -102 -213 -235
-323 -405 -49 -76 -93 -135 -97 -133 -11 7 -86 248 -103 330 -67 323 -62 709
13 1002 24 92 82 267 100 302 13 23 13 22 48 -29 19 -29 59 -92 89 -141z
m2611 45 c377 -55 644 -222 768 -479 201 -416 129 -1072 -202 -1838 -36 -84
-74 -166 -85 -184 -46 -77 -382 -240 -631 -308 -181 -49 -300 -66 -513 -72
-214 -6 -323 2 -504 38 -122 24 -365 102 -461 148 -60 28 -249 129 -257 136
-2 2 8 45 22 96 45 169 51 236 51 544 -1 312 -12 479 -51 729 -13 88 -24 161
-24 163 0 4 121 85 124 81 1 -1 9 -40 18 -86 49 -245 221 -441 502 -572 132
-63 257 -100 416 -124 71 -11 338 -6 432 9 465 70 779 278 938 619 154 330 75
651 -201 821 -74 46 -162 78 -281 104 -334 72 -725 43 -1129 -85 -45 -14 -83
-24 -85 -21 -8 7 137 102 214 141 127 64 284 113 432 135 41 6 86 13 100 15
70 10 313 4 407 -10z m-198 -501 c19 -61 25 -175 11 -217 -16 -48 -63 -102
-111 -127 -87 -44 -245 -62 -318 -36 -92 32 -113 173 -47 311 14 28 32 59 40
70 20 24 88 33 267 35 l146 1 12 -37z m369 -53 c100 -58 146 -163 122 -283
-31 -157 -146 -320 -290 -409 -170 -105 -411 -168 -645 -168 -132 0 -213 12
-320 46 -218 71 -373 181 -437 312 -31 63 -33 72 -33 180 0 103 2 115 20 125
78 46 429 186 440 176 2 -3 -1 -35 -8 -72 -23 -136 24 -304 112 -400 88 -96
209 -134 394 -124 243 12 432 116 520 284 46 89 60 158 56 271 -3 57 0 92 6
92 6 0 34 -14 63 -30z m-2338 -791 c5 -35 12 -111 16 -169 3 -58 8 -108 10
-112 2 -3 4 -128 4 -276 1 -244 -10 -394 -29 -430 -13 -24 -264 246 -362 390
l-39 56 30 73 c30 71 116 219 191 327 55 80 161 213 166 208 2 -2 8 -32 13
-67z"/>
</g>
</svg>
